<svg width="26" height="27" viewBox="0 0 26 27" fill="none" xmlns="http://www.w3.org/2000/svg">
<path d="M14.3542 13.5479L11.2369 10.1543C10.9715 9.88618 10.9715 9.4515 11.2369 9.18202C11.5023 8.91525 11.9343 8.91525 12.1983 9.18202L15.9995 13.0604C16.2649 13.3298 16.2649 13.7645 15.9995 14.0313L12.1983 17.9096C11.9343 18.1791 11.5023 18.1777 11.2369 17.9096C10.9715 17.6429 10.9715 17.2082 11.2369 16.9387L14.3542 13.5479ZM13 0.547852C20.1798 0.547852 26 6.36806 26 13.5479C26 20.729 20.1798 26.5479 13 26.5479C5.82021 26.5479 0 20.729 0 13.5479C0 6.36806 5.82021 0.547852 13 0.547852ZM13 24.8606C19.2468 24.8606 24.3127 19.796 24.3127 13.5479C24.3127 7.29973 19.2468 2.23514 13 2.23514C6.75052 2.23514 1.68729 7.29973 1.68729 13.5479C1.68594 19.796 6.75052 24.8606 13 24.8606Z" fill="white" fill-opacity="0.7"/>
</svg>
