<svg width="20" height="20" viewBox="0 0 20 20" fill="none" xmlns="http://www.w3.org/2000/svg">
<path d="M10 0C4.4856 0 0 4.48559 0 10C0 15.5144 4.4856 20 10 20C15.5144 20 20 15.5144 20 10C20 4.48559 15.5144 0 10 0ZM10 17.8807C5.65844 17.8807 2.13992 14.3416 2.13992 10.0206C2.13992 5.69959 5.67901 2.16049 10 2.16049C14.321 2.16049 17.8601 5.69959 17.8601 10.0206C17.8601 14.3416 14.3416 17.8807 10 17.8807Z" fill="#009344"/>
<path d="M15.2058 9.69135H10.7202V4.30041C10.7202 3.84774 10.3498 3.47737 9.89712 3.47737C9.44445 3.47737 9.07408 3.84774 9.07408 4.30041V10.5144C9.07408 10.9671 9.44445 11.3374 9.89712 11.3374H15.2058C15.6584 11.3374 16.0288 10.9671 16.0288 10.5144C16.0288 10.0617 15.6584 9.69135 15.2058 9.69135Z" fill="#009344"/>
</svg>
