<svg width="50" height="50" viewBox="0 0 50 50" fill="none" xmlns="http://www.w3.org/2000/svg">
<path d="M0.499996 25C0.499994 11.469 11.469 0.500006 25 0.500005C38.531 0.500004 49.5 11.469 49.5 25C49.5 38.531 38.531 49.5 25 49.5C11.469 49.5 0.499998 38.531 0.499996 25Z" fill="white" stroke="#CCE9DA"/>
<path d="M22.5498 25.1565L28.65 31.7986C29.1705 32.323 29.1705 33.1717 28.65 33.698C28.1295 34.2224 27.2886 34.2224 26.7681 33.698L19.3298 26.1082C18.8093 25.5819 18.8093 24.7312 19.3298 24.2068L26.7681 16.617C27.2867 16.0887 28.1295 16.0926 28.65 16.617C29.1705 17.1394 29.1705 17.9901 28.65 18.5164L22.5498 25.1565Z" fill="#009344"/>
</svg>
