<svg width="64" height="65" viewBox="0 0 64 65" fill="none" xmlns="http://www.w3.org/2000/svg">
<circle cx="32" cy="33" r="31.5" stroke="#009344"/>
<path d="M38.008 10.952H42.328L42.376 11.096C41.896 11.384 41.432 11.896 40.984 12.632C40.536 13.368 40.232 14.264 40.072 15.32C38.632 25.048 36.856 35.432 34.744 46.472C34.328 48.584 33.16 50.648 31.24 52.664C29.32 54.712 27.048 56.056 24.424 56.696C22.536 56.696 20.216 55.64 17.464 53.528C16.792 53.048 16.44 52.792 16.408 52.76L19.192 50.888C19.864 51.528 20.408 52.008 20.824 52.328C21.24 52.68 21.864 53.064 22.696 53.48C23.56 53.896 24.392 54.104 25.192 54.104C26.856 54.104 28.296 53.4 29.512 51.992C30.76 50.584 31.576 48.504 31.96 45.752C33.24 36.664 34.824 26.792 36.712 16.136C36.904 15.08 37.24 14.264 37.72 13.688H34.408C31.208 13.688 28.952 14.568 27.64 16.328C26.36 18.056 25.72 21.048 25.72 25.304L22.408 27.896C22.408 24.248 23.064 21.128 24.376 18.536C25.688 15.944 27.928 13.736 31.096 11.912C32.216 11.272 34.52 10.952 38.008 10.952Z" fill="#009344"/>
</svg>
