<svg width="91" height="26" viewBox="0 0 91 26" fill="none" xmlns="http://www.w3.org/2000/svg">
<path fill-rule="evenodd" clip-rule="evenodd" d="M65.6573 11.8281V25.5335H73.5049V17.4118H82.3987C86.1419 17.3848 89.3216 15.0648 90.5207 11.8281H65.6573Z" fill="#37A72E"/>
<path fill-rule="evenodd" clip-rule="evenodd" d="M64.611 0.533203C65.0681 6.13519 70.5303 10.5584 77.2014 10.5584C77.2232 10.5584 90.8466 10.5584 90.8466 10.5584C90.9473 10.0446 91 9.51436 91 8.97214C91 4.33159 87.1412 0.567533 82.3677 0.533437L64.611 0.533203Z" fill="url(#paint0_linear_1_73)"/>
<path fill-rule="evenodd" clip-rule="evenodd" d="M52.9966 10.4251L53.0028 10.4123L53.0036 10.4125C53.084 10.2724 53.2382 10.1777 53.4152 10.1777C53.6709 10.1777 53.8789 10.3754 53.8859 10.6218L53.886 10.6219V25.4058H61.7336V0.533203H53.886C52.8909 0.565341 51.7665 1.27387 51.3485 2.14361L45.1034 15.1379C45.088 15.191 45.0639 15.2406 45.0327 15.2851L45.0306 15.2895L45.0298 15.2892C44.9353 15.4212 44.778 15.5076 44.5998 15.5076C44.3109 15.5076 44.0766 15.2803 44.0766 14.9999V0.533203H36.2291V25.4058H44.0766V25.403C45.0609 25.3531 46.1588 24.6526 46.5708 23.7954L52.9805 10.4586C52.9854 10.4472 52.9908 10.436 52.9966 10.4251Z" fill="#37A72E"/>
<path fill-rule="evenodd" clip-rule="evenodd" d="M23.6934 10.8503L19.1069 25.4058H13.4615L8.87222 10.8414C8.82797 10.6082 8.61732 10.4315 8.36415 10.4315C8.07882 10.4315 7.84752 10.6559 7.84752 10.9328C7.84752 10.9349 7.84753 10.937 7.84756 10.9391L7.84752 25.4058H0V0.533203H6.73579H8.74184C10.1858 0.533203 11.699 1.62047 12.1209 2.95959L15.9401 15.08C16.1302 15.683 16.4384 15.6824 16.6283 15.08L20.4475 2.95959C20.8697 1.61953 22.3824 0.533203 23.8266 0.533203L25.832 0.533203H32.5672V25.4058H24.7197V10.9391C24.7197 10.937 24.7197 10.9349 24.7197 10.9328C24.7197 10.6559 24.4884 10.4315 24.2031 10.4315C23.9467 10.4315 23.7339 10.6127 23.6934 10.8503Z" fill="#37A72E"/>
<defs>
<linearGradient id="paint0_linear_1_73" x1="64.611" y1="5.5458" x2="91" y2="5.5458" gradientUnits="userSpaceOnUse">
<stop stop-color="#00A0E5"/>
<stop offset="1" stop-color="#0077C3"/>
</linearGradient>
</defs>
</svg>
