<svg width="36" height="34" viewBox="0 0 36 34" fill="none" xmlns="http://www.w3.org/2000/svg">
<path d="M27.0572 22.4917C25.8945 21.395 24.4429 21.395 23.2876 22.4917C22.4063 23.3265 21.525 24.1614 20.6585 25.0104C20.4215 25.2439 20.2216 25.2934 19.9327 25.1378C19.3625 24.8406 18.7552 24.6 18.2072 24.2746C15.6522 22.7393 13.5119 20.7654 11.616 18.5438C10.6754 17.4401 9.83856 16.2585 9.25349 14.9284C9.135 14.6596 9.15722 14.4827 9.3868 14.2634C10.2681 13.4497 11.1272 12.6149 11.9937 11.78C13.2008 10.6197 13.2008 9.2613 11.9863 8.09392C11.2975 7.42886 10.6088 6.77796 9.92002 6.1129C9.20906 5.43369 8.5055 4.74741 7.78713 4.07528C6.62441 2.99279 5.17286 2.99279 4.01755 4.08236C3.12885 4.91721 2.27717 5.7733 1.37366 6.594C0.536796 7.35104 0.114662 8.27787 0.0257918 9.36036C-0.114919 11.122 0.336838 12.7847 0.973742 14.4049C2.27717 17.7585 4.26194 20.7371 6.66885 23.468C9.92002 27.1612 13.8007 30.0832 18.3405 32.1916C20.3845 33.1397 22.5026 33.8684 24.8058 33.9887C26.3907 34.0736 27.7681 33.6915 28.8716 32.51C29.627 31.7034 30.4787 30.9676 31.2785 30.1964C32.4635 29.0503 32.4709 27.6636 31.2933 26.5315C29.8862 25.1802 28.4717 23.8359 27.0572 22.4917Z" fill="#009344"/>
<path d="M25.6427 16.8528L28.3754 16.4071C27.9459 14.0086 26.7609 11.8366 24.9613 10.1103C23.058 8.29198 20.6511 7.14582 17.9998 6.79206L17.6147 9.41691C19.6661 9.69284 21.5324 10.5772 23.0062 11.9852C24.3985 13.3153 25.3094 14.9991 25.6427 16.8528Z" fill="#009344"/>
<path d="M29.9158 5.5044C26.7609 2.49042 22.7692 0.587231 18.3627 0L17.9776 2.62485C21.7842 3.13425 25.2353 4.78274 27.9607 7.37929C30.5453 9.84849 32.2413 12.9686 32.856 16.4L35.5887 15.9543C34.8704 11.9781 32.9078 8.3698 29.9158 5.5044Z" fill="#009344"/>
</svg>
