<svg width="21" height="20" viewBox="0 0 21 20" fill="none" xmlns="http://www.w3.org/2000/svg">
<path d="M15.7055 13.2304C15.0521 12.5853 14.2363 12.5853 13.5871 13.2304C13.0918 13.7215 12.5965 14.2126 12.1096 14.712C11.9764 14.8493 11.864 14.8785 11.7017 14.7869C11.3812 14.6121 11.04 14.4706 10.732 14.2792C9.29613 13.3761 8.09334 12.2149 7.02789 10.9081C6.49932 10.2589 6.02903 9.56385 5.70024 8.78143C5.63365 8.62328 5.64613 8.51924 5.77515 8.39022C6.27042 7.91161 6.7532 7.42052 7.24015 6.92943C7.91854 6.24689 7.91854 5.44783 7.23598 4.76113C6.84893 4.36992 6.46187 3.98703 6.07481 3.59582C5.67527 3.19629 5.27988 2.79259 4.87618 2.39722C4.22276 1.76047 3.40702 1.76047 2.75777 2.40139C2.25834 2.89248 1.77972 3.39606 1.27196 3.87883C0.801666 4.32414 0.564437 4.86934 0.514494 5.50609C0.435418 6.54238 0.689295 7.5204 1.04722 8.47346C1.77972 10.4462 2.89511 12.1983 4.24773 13.8047C6.07481 15.9772 8.25565 17.696 10.8069 18.9362C11.9556 19.4939 13.1459 19.9226 14.4403 19.9933C15.3309 20.0433 16.105 19.8185 16.7251 19.1235C17.1497 18.6491 17.6283 18.2162 18.0778 17.7626C18.7437 17.0884 18.7478 16.2727 18.0861 15.6068C17.2953 14.8119 16.5004 14.0211 15.7055 13.2304Z" fill="black" fill-opacity="0.4"/>
<path d="M14.9106 9.91342L16.4463 9.65122C16.2049 8.24037 15.539 6.9627 14.5277 5.94722C13.458 4.87763 12.1054 4.20342 10.6155 3.99533L10.399 5.53936C11.5519 5.70167 12.6007 6.2219 13.4289 7.05009C14.2114 7.83251 14.7233 8.82302 14.9106 9.91342Z" fill="black" fill-opacity="0.4"/>
<path d="M17.312 3.23788C15.539 1.46496 13.2957 0.34543 10.8194 0L10.603 1.54403C12.7422 1.84368 14.6816 2.81338 16.2132 4.34076C17.6657 5.79323 18.6188 7.62859 18.9643 9.64706L20.5 9.38487C20.0963 7.04593 18.9934 4.92341 17.312 3.23788Z" fill="black" fill-opacity="0.4"/>
</svg>
