<svg width="20" height="20" viewBox="0 0 20 20" fill="none" xmlns="http://www.w3.org/2000/svg">
<g clip-path="url(#clip0_10_2)">
<path fill-rule="evenodd" clip-rule="evenodd" d="M16.481 3.69154C17.3876 3.30981 18.3595 4.07642 18.1995 5.04699L16.3087 16.5109C16.1264 17.6163 14.9124 18.2505 13.8983 17.6997C13.0497 17.2388 11.7907 16.5293 10.656 15.7879C10.0895 15.4177 8.35454 14.2305 8.56779 13.3854C8.75012 12.6628 11.6667 9.94792 13.3334 8.33334C13.988 7.69911 13.6899 7.33272 12.9167 7.91667C10.9987 9.36525 7.91939 11.5677 6.90109 12.1875C6.00265 12.7343 5.53355 12.8277 4.97401 12.7343C3.95223 12.5641 3.00492 12.3004 2.23152 11.9798C1.18621 11.5465 1.23713 10.11 2.23081 9.69167L16.481 3.69154Z" fill="#009344"/>
</g>
<defs>
<clipPath id="clip0_10_2">
<rect width="20" height="20" fill="white"/>
</clipPath>
</defs>
</svg>
